<?xml version="1.0" encoding="utf-8"?>
<!-- Generator: Adobe Illustrator 28.1.0, SVG Export Plug-In . SVG Version: 6.00 Build 0)  -->
<svg version="1.1" id="Layer_1" xmlns="http://www.w3.org/2000/svg" xmlns:xlink="http://www.w3.org/1999/xlink" x="0px" y="0px"
	 viewBox="0 0 97.18 130" style="enable-background:new 0 0 97.18 130;" xml:space="preserve">
<style type="text/css">
	.st0{fill:#FFFFFF;}
</style>
<g>
	<path class="st0" d="M44.74,116.7c-10.76,6.15-21.52,10.76-35.35,12.3l-9.22-18.44c10.76-1.54,19.98-3.07,24.59-4.61H10.93V53.68
		c-1.54,0-1.54,1.54-3.07,1.54L0.17,38.31c12.3-4.61,19.98-7.69,26.13-12.3c6.15-7.69,10.76-15.37,13.83-24.59L57.04,4.5
		c0,1.54-1.54,3.07-1.54,4.61h36.89v10.76c-1.54,3.07-3.07,9.22-6.15,15.37l-12.3-1.54c4.61,4.61,12.3,7.69,23.06,9.22l-9.22,16.91
		c0,0-1.54,0-3.07-1.54v47.65H69.33c4.61,1.54,13.83,3.07,24.59,4.61L84.7,129c-13.83-1.54-24.59-6.15-35.35-12.3l7.69-10.76H37.06
		L44.74,116.7z M29.37,13.72L18.61,29.09C12.46,24.48,7.85,19.87,1.7,16.8L12.46,1.43C18.61,6.04,24.76,9.11,29.37,13.72z
		 M29.37,44.46c-4.61,3.07-7.69,4.61-12.3,6.15h15.37L29.37,44.46z M27.83,27.56l3.07,13.83c6.15-1.54,10.76-3.07,13.83-6.15
		c3.07-3.07,6.15-6.15,6.15-10.76h-4.61c-1.54,3.07-4.61,6.15-6.15,9.22L27.83,27.56z M66.26,67.52v-4.61H27.83v3.07h38.43V67.52z
		 M66.26,79.81v-3.07H27.83v3.07H66.26z M66.26,92.11v-3.07H27.83v3.07L66.26,92.11z M49.35,50.61h21.52
		c-4.61-3.07-7.69-6.15-10.76-9.22C57.04,46,53.96,49.07,49.35,50.61z M67.8,24.48c0,1.54,0,1.54,0,3.07
		c1.54,1.54,3.07,3.07,4.61,4.61c1.54-1.54,3.07-4.61,3.07-7.69H67.8z"/>
</g>
</svg>
