<?xml version="1.0" encoding="utf-8"?>
<!-- Generator: Adobe Illustrator 28.1.0, SVG Export Plug-In . SVG Version: 6.00 Build 0)  -->
<svg version="1.1" id="Layer_1" xmlns="http://www.w3.org/2000/svg" xmlns:xlink="http://www.w3.org/1999/xlink" x="0px" y="0px"
	 viewBox="0 0 97.18 130" style="enable-background:new 0 0 97.18 130;" xml:space="preserve">
<style type="text/css">
	.st0{fill:#FFFFFF;}
</style>
<path class="st0" d="M56.3,7.73H42.88H16.06H0.09v16.61l23,2.56l0.64,1.28v99.65h23.63V28.17h8.3c5.75,0,10.22,1.28,13.41,4.47
	c2.56,3.19,4.47,7.03,4.47,13.41c0,3.83-0.64,7.03-2.56,10.22c-1.28,2.56-3.83,5.11-7.03,6.39c-2.56,0.64-5.11,1.28-8.3,1.28
	l2.56,21.08c8.3-0.64,15.33-1.92,21.08-5.11c6.39-3.19,10.86-8.3,13.41-14.05c2.56-5.75,4.47-12.78,4.47-21.08
	c0-12.14-3.19-21.08-10.22-27.47S69.71,7.73,56.3,7.73z"/>
</svg>
