<?xml version="1.0" encoding="utf-8"?>
<!-- Generator: Adobe Illustrator 28.1.0, SVG Export Plug-In . SVG Version: 6.00 Build 0)  -->
<svg version="1.1" id="Layer_1" xmlns="http://www.w3.org/2000/svg" xmlns:xlink="http://www.w3.org/1999/xlink" x="0px" y="0px"
	 viewBox="0 0 365 130" style="enable-background:new 0 0 365 130;" xml:space="preserve">
<style type="text/css">
	.st0{fill:#FFFFFF;}
</style>
<path class="st0" d="M33.22,127.92V28.92H0V7.84h90.7v21.08H57.49v99.01H33.22z"/>
<path class="st0" d="M127.11,129.2c-9.58,0-17.25-3.19-23-8.94c-5.75-5.75-8.3-14.05-8.3-24.91v-59.4h24.27V89.6
	c0,6.39,1.28,10.86,3.19,14.69c1.92,3.19,5.75,5.11,11.5,5.11c5.11,0,9.58-1.28,12.14-3.83c2.56-2.56,4.47-5.75,5.75-10.22
	c1.28-4.47,1.28-9.58,1.28-15.97V35.94h24.27v91.98h-18.52l-3.83-11.5h-1.28c-1.92,2.56-3.83,5.11-7.03,7.03
	c-2.56,1.92-6.39,3.83-9.58,4.47C134.78,128.56,130.94,129.2,127.11,129.2z"/>
<path class="st0" d="M239.53,129.2c-5.11,0-10.22-1.28-14.69-3.19c-4.47-1.92-8.3-5.11-11.5-8.94h-1.92l-3.83,10.22h-18.52V0.81
	h23.63v28.74c0,1.92,0,4.47,0,7.03c0,3.19-0.64,6.39-0.64,10.86h1.28c3.19-4.47,7.03-8.3,11.5-10.22c4.47-1.92,9.58-3.19,15.33-3.19
	s10.86,1.28,15.33,3.83c4.47,2.56,7.67,5.75,10.86,10.22c2.56,4.47,5.11,9.58,6.39,15.33c1.28,5.75,1.92,11.5,1.92,18.52
	s-0.64,12.78-1.92,18.52c-1.28,5.75-3.19,10.86-6.39,15.33c-2.56,4.47-6.39,7.67-10.86,10.22
	C250.39,127.92,245.28,129.2,239.53,129.2z M231.23,109.4c5.75,0,10.22-2.56,13.41-7.03c3.19-4.47,4.47-11.5,4.47-21.08
	s-1.28-15.97-4.47-20.44s-7.67-6.39-13.41-6.39c-5.11,0-9.58,1.92-12.78,5.75c-3.19,3.83-5.11,10.86-5.11,21.08
	c0,9.58,1.92,16.61,5.11,21.08C221.65,106.85,225.48,109.4,231.23,109.4z"/>
<path class="st0" d="M331.51,129.2c-10.86,0-19.8-1.92-27.47-5.75c-7.67-3.83-13.41-8.94-17.25-16.61
	c-3.83-7.03-5.75-15.97-5.75-26.19c0-9.58,1.92-17.89,5.11-24.91c3.19-7.03,8.3-12.78,14.69-16.61c6.39-3.83,14.05-5.75,23.63-5.75
	c8.94,0,15.97,1.92,21.72,5.11c5.75,3.19,10.86,8.3,14.05,14.69c3.19,6.39,4.47,14.05,4.47,23v12.14h-60.04
	c0,4.47,1.28,8.3,3.83,11.5s5.75,5.11,10.22,7.03c4.47,1.28,8.94,2.56,14.05,2.56c4.47,0,8.94-0.64,14.05-1.28
	c5.11-1.28,10.22-2.56,15.33-4.47v19.8c-5.11,2.56-10.22,4.47-15.33,5.11C341.73,128.56,336.62,129.2,331.51,129.2z M343.01,72.35
	c0-3.83-0.64-7.67-2.56-10.22c-1.92-2.56-3.83-5.11-6.39-6.39s-5.75-2.56-9.58-2.56c-5.11,0-9.58,1.92-13.41,5.11
	s-5.75,8.3-6.39,14.69L343.01,72.35L343.01,72.35z"/>
</svg>
