<?xml version="1.0" encoding="utf-8"?>
<!-- Generator: Adobe Illustrator 28.1.0, SVG Export Plug-In . SVG Version: 6.00 Build 0)  -->
<svg version="1.1" id="Layer_1" xmlns="http://www.w3.org/2000/svg" xmlns:xlink="http://www.w3.org/1999/xlink" x="0px" y="0px"
	 viewBox="0 0 25 130" style="enable-background:new 0 0 25 130;" xml:space="preserve">
<style type="text/css">
	.st0{fill:#FFFFFF;}
</style>
<g>
	<path class="st0" d="M9.1,48.09c-0.06,0-0.12-0.01-0.18-0.03c-0.15-0.05-0.26-0.16-0.32-0.31c-0.99-2.56-2.72-5.85-4.86-9.28
		l-0.18-0.34c-0.22-0.35-0.49-0.76-0.77-1.17l-0.22-0.36c-0.08-0.15-0.17-0.29-0.25-0.43L1.1,34.35L0.9,34.11L0.69,33.8l-0.2-0.33
		l-0.18-0.25c-0.12-0.17-0.12-0.39-0.01-0.57l0.39-0.6c0.29-0.44,0.58-0.9,0.86-1.38l0.21-0.31c0.37-0.56,0.74-1.17,1.08-1.77
		l0.2-0.32c0.16-0.28,0.32-0.56,0.52-0.85l0.12-0.25l0.14-0.23c0.09-0.15,0.19-0.31,0.27-0.48l0.17-0.3
		c1.42-2.48,2.6-4.79,3.32-6.51c0.09-0.2,0.29-0.33,0.5-0.33c0.07,0,0.13,0.01,0.19,0.04l4.55,1.72c0.13,0.05,0.24,0.15,0.3,0.28
		c0.06,0.13,0.06,0.27,0,0.4c-1.37,3.24-2.82,5.69-4.18,7.84L8.8,29.86l-0.21,0.36c-0.2,0.3-0.38,0.57-0.56,0.85
		c-0.19,0.29-0.37,0.58-0.56,0.86l-0.22,0.33c-0.05,0.1-0.1,0.19-0.15,0.28l-0.21,0.34c0.04,0.06,0.08,0.11,0.13,0.16
		c0.12,0.16,0.25,0.32,0.36,0.48l1.14,1.64c0.45,0.66,0.89,1.3,1.31,1.95l0.17,0.3c1.65,2.58,3.14,5.24,4.19,7.47
		c0.12,0.25,0.02,0.54-0.23,0.67l-4.58,2.49C9.28,48.07,9.19,48.09,9.1,48.09z M18.8,47.42c-0.06,0-0.12-0.01-0.18-0.03
		c-0.15-0.05-0.26-0.16-0.32-0.3c-0.96-2.38-2.67-5.47-4.95-8.93l-0.18-0.27c-0.07-0.12-0.1-0.16-0.13-0.21l-0.44-0.62
		c-0.08-0.16-0.14-0.23-0.19-0.3c0,0-0.42-0.6-0.46-0.65l-0.22-0.35c0,0-0.25-0.31-0.25-0.32l-0.24-0.34
		c-0.08-0.12-0.16-0.23-0.24-0.33c-0.1-0.13-0.19-0.25-0.28-0.39l-0.18-0.26c-0.09-0.11-0.2-0.25-0.3-0.39
		c-0.1-0.14-0.2-0.27-0.31-0.41c-0.14-0.18-0.15-0.43-0.02-0.62c0.27-0.38,0.54-0.79,0.81-1.2c0.21-0.31,0.83-1.22,0.83-1.22
		c0.16-0.26,0.35-0.54,0.53-0.82c0.18-0.27,0.36-0.55,0.53-0.82l0.18-0.29c0.02-0.04,0.04-0.1,0.09-0.16l0.17-0.28
		c0.11-0.19,0.23-0.38,0.36-0.57c0.11-0.18,0.23-0.35,0.34-0.53l0.19-0.31c1.54-2.55,2.67-4.63,3.35-6.17
		c0.09-0.2,0.29-0.32,0.49-0.32c0.07,0,0.13,0.01,0.2,0.04l4.61,1.75c0.14,0.05,0.24,0.15,0.3,0.28c0.06,0.13,0.06,0.28,0,0.41
		c-1.15,2.62-2.47,4.72-3.61,6.49l-0.16,0.25c-0.02,0.03-0.05,0.06-0.08,0.09l-0.18,0.28l-0.18,0.24c-0.03,0.07-0.11,0.19-0.19,0.31
		l-0.1,0.15l-0.22,0.29c-0.1,0.18-0.23,0.37-0.4,0.6l-0.14,0.22c-0.08,0.11-0.18,0.24-0.28,0.37l-0.13,0.21
		c-0.07,0.12-0.12,0.2-0.18,0.28l-0.13,0.21l-0.22,0.28l-0.09,0.15c2.74,3.47,5.54,7.76,7.35,11.28c0.13,0.25,0.03,0.56-0.22,0.69
		l-4.68,2.49C18.98,47.4,18.89,47.42,18.8,47.42z"/>
	<path class="st0" d="M3.82,82.23c-0.04,0-0.08,0-0.11-0.01c-0.14-0.03-0.27-0.12-0.35-0.24c-0.6-0.97-2.32-3.03-3.21-3.93
		C0.04,77.94-0.02,77.78,0,77.62s0.12-0.3,0.26-0.38c3.28-1.9,6.34-4.64,9.34-8.37l-0.12-0.12c-0.8-0.84-1.59-1.67-2.35-2.43
		l-0.2-0.22c-0.09-0.07-0.15-0.14-0.2-0.19l-0.26-0.25c-0.13-0.12-0.21-0.21-0.29-0.32L6.04,65.2l-1.11-1.07
		c-0.23-0.22-0.46-0.45-0.66-0.67l-0.86-0.83c-0.25-0.22-0.5-0.47-0.75-0.71c-0.24-0.23-0.48-0.47-0.73-0.69
		c-0.22-0.2-0.23-0.53-0.02-0.74l3.22-3.35c0.11-0.11,0.25-0.17,0.39-0.17c0.13,0,0.26,0.05,0.37,0.14
		c1.45,1.32,3.02,2.81,4.53,4.25l0.22,0.22c0.02,0.02,0.04,0.04,0.06,0.07c0.02,0.02,0.05,0.04,0.07,0.06l0.44,0.43
		c0.52,0.5,1.01,0.98,1.54,1.46l0.26,0.28c0.05,0.05,0.12,0.12,0.2,0.18c0.53-0.92,1-1.84,1.44-2.71l0.12-0.26
		c0.68-1.48,1.26-3,1.79-4.42l0.14-0.31c0.08-0.21,0.17-0.47,0.25-0.72c0.09-0.26,0.18-0.51,0.27-0.76c0.08-0.21,0.29-0.34,0.5-0.34
		c0.06,0,0.12,0.01,0.17,0.03l4.46,1.47c0.28,0.09,0.43,0.39,0.34,0.66c-0.03,0.09-0.07,0.2-0.14,0.33l-0.08,0.24
		c-0.07,0.18-0.13,0.3-0.15,0.41l-0.15,0.37L22.1,58.3l-0.14,0.34c-0.07,0.15-0.12,0.28-0.17,0.42c-0.06,0.16-0.12,0.31-0.19,0.46
		l-0.13,0.28L21.2,60.5l-0.14,0.3c-0.01,0.02-0.04,0.09-0.07,0.16c-0.01,0.02-0.18,0.4-0.18,0.4c-0.09,0.22-0.19,0.46-0.3,0.69
		c-0.07,0.15-0.33,0.73-0.33,0.73c-0.49,1.06-1.04,2.15-1.72,3.41l-0.16,0.29c-0.35,0.62-0.72,1.22-1.09,1.82l0.2,0.22
		c0.7,0.71,1.39,1.41,2.02,2.08l0.23,0.23c2.33,2.47,4.04,4.54,5.25,6.35c0.13,0.2,0.11,0.46-0.06,0.64l-3.98,4.17
		c-0.1,0.11-0.25,0.17-0.39,0.17c-0.02,0-0.04,0-0.06,0c-0.17-0.02-0.32-0.11-0.41-0.26c-1.38-2.3-3.65-5.26-6.59-8.59
		c-3.22,4-6.11,6.75-9.3,8.85C4.04,82.2,3.93,82.23,3.82,82.23z"/>
	<path class="st0" d="M2.31,116.22c-0.24,0-0.45-0.16-0.52-0.38c-0.25-0.89-1.1-3.35-1.68-4.55c-0.06-0.13-0.07-0.29-0.01-0.42
		c0.06-0.14,0.17-0.24,0.32-0.29c0.78-0.27,1.26-1.06,2.22-2.64l0.34-0.57c1.35-2.03,5.03-10,7.02-17.46
		c0.04-0.14,0.13-0.26,0.26-0.33c0.08-0.04,0.17-0.07,0.26-0.07c0.05,0,0.11,0.01,0.16,0.02l4.8,1.47c0.28,0.09,0.44,0.38,0.35,0.65
		c-0.41,1.33-0.89,2.64-1.36,3.91l-0.09,0.3c-0.08,0.19-0.13,0.34-0.18,0.48c-0.06,0.16-0.12,0.32-0.18,0.48l-0.13,0.29
		c-0.34,0.9-0.69,1.79-1.07,2.69l-0.13,0.29c-0.05,0.11-0.1,0.24-0.13,0.34l-0.15,0.37c-0.66,1.53-1.36,3.04-2.07,4.48l-0.12,0.26
		c-0.08,0.15-0.13,0.25-0.18,0.34c-0.06,0.12-0.12,0.23-0.19,0.35l-0.1,0.23c-0.01,0.01-0.05,0.1-0.06,0.11
		c-0.01,0.04-0.08,0.17-0.1,0.2l-0.16,0.25c-0.48,0.96-1.02,1.95-1.65,3.05c0,0,15.98-0.84,15.99-0.84c0.14,0,0.28,0.06,0.38,0.16
		c0.11,0.11,0.16,0.25,0.15,0.4c-0.09,1.16,0.03,3.55,0.16,4.5c0.02,0.14-0.02,0.29-0.12,0.4c-0.1,0.11-0.23,0.18-0.38,0.19
		c-6.79,0.37-11.34,0.56-14.36,0.69c-4.53,0.19-5.9,0.25-6.91,0.54l0,0C2.53,116.22,2.38,116.22,2.31,116.22z"/>
</g>
</svg>
