<?xml version="1.0" encoding="utf-8"?>
<!-- Generator: Adobe Illustrator 28.0.0, SVG Export Plug-In . SVG Version: 6.00 Build 0)  -->
<svg version="1.1" id="Layer_1" focusable="false" xmlns="http://www.w3.org/2000/svg" xmlns:xlink="http://www.w3.org/1999/xlink"
	 x="0px" y="0px" viewBox="0 0 90 20" style="enable-background:new 0 0 90 20;" xml:space="preserve">
<g>
	<path d="M37.3,19.7V4.2h-5.2V0.9h14.2v3.3h-5.2v15.5H37.3z"/>
	<path d="M52,19.9c-1.5,0-2.7-0.5-3.6-1.4c-0.9-0.9-1.3-2.2-1.3-3.9V5.3h3.8v8.4c0,1,0.2,1.7,0.5,2.3c0.3,0.5,0.9,0.8,1.8,0.8
		c0.8,0,1.5-0.2,1.9-0.6c0.4-0.4,0.7-0.9,0.9-1.6c0.2-0.7,0.2-1.5,0.2-2.5V5.3h3.8v14.4h-2.9l-0.6-1.8h-0.2
		c-0.3,0.4-0.6,0.8-1.1,1.1c-0.4,0.3-1,0.6-1.5,0.7C53.2,19.8,52.6,19.9,52,19.9z"/>
	<path d="M69.6,19.9c-0.8,0-1.6-0.2-2.3-0.5c-0.7-0.3-1.3-0.8-1.8-1.4h-0.3l-0.6,1.6h-2.9V0.1h3.7v4.2c0,0.3,0,0.7,0,1.1
		c0,0.5-0.1,1-0.1,1.7h0.2c0.5-0.7,1.1-1.3,1.8-1.6C68,5.2,68.8,5,69.7,5c0.9,0,1.7,0.2,2.4,0.6c0.7,0.4,1.2,0.9,1.7,1.6
		c0.4,0.7,0.8,1.5,1,2.4c0.2,0.9,0.3,1.8,0.3,2.9c0,1.1-0.1,2-0.3,2.9c-0.2,0.9-0.5,1.7-1,2.4c-0.4,0.7-1,1.2-1.7,1.6
		C71.3,19.7,70.5,19.9,69.6,19.9z M68.3,16.8c0.9,0,1.6-0.4,2.1-1.1c0.5-0.7,0.7-1.8,0.7-3.3c0-1.5-0.2-2.5-0.7-3.2
		c-0.5-0.7-1.2-1-2.1-1c-0.8,0-1.5,0.3-2,0.9c-0.5,0.6-0.8,1.7-0.8,3.3c0,1.5,0.3,2.6,0.8,3.3S67.4,16.8,68.3,16.8z"/>
	<path d="M84,19.9c-1.7,0-3.1-0.3-4.3-0.9c-1.2-0.6-2.1-1.4-2.7-2.6c-0.6-1.1-0.9-2.5-0.9-4.1c0-1.5,0.3-2.8,0.8-3.9
		c0.5-1.1,1.3-2,2.3-2.6c1-0.6,2.2-0.9,3.7-0.9c1.4,0,2.5,0.3,3.4,0.8c0.9,0.5,1.7,1.3,2.2,2.3c0.5,1,0.7,2.2,0.7,3.6v1.9h-9.4
		c0,0.7,0.2,1.3,0.6,1.8c0.4,0.5,0.9,0.8,1.6,1.1c0.7,0.2,1.4,0.4,2.2,0.4c0.7,0,1.4-0.1,2.2-0.2c0.8-0.2,1.6-0.4,2.4-0.7v3.1
		c-0.8,0.4-1.6,0.7-2.4,0.8C85.6,19.8,84.8,19.9,84,19.9z M85.8,11c0-0.6-0.1-1.2-0.4-1.6c-0.3-0.4-0.6-0.8-1-1
		c-0.4-0.2-0.9-0.4-1.5-0.4c-0.8,0-1.5,0.3-2.1,0.8c-0.6,0.5-0.9,1.3-1,2.3H85.8z"/>
	<polygon points="30.3,3.5 30.3,0.9 17,0.9 17,3.5 21.8,3.9 21.8,16.6 17,17 17,19.7 30.3,19.7 30.3,17 25.4,16.6 25.4,3.9 	"/>
	<path d="M8.8,0.9H6.7H2.5H0v2.6l3.6,0.4l0.1,0.2v15.6h3.7V4.1h1.3c0.9,0,1.6,0.2,2.1,0.7c0.4,0.5,0.7,1.1,0.7,2.1
		c0,0.6-0.1,1.1-0.4,1.6c-0.2,0.4-0.6,0.8-1.1,1C9.6,9.6,9.2,9.7,8.7,9.7L9.1,13c1.3-0.1,2.4-0.3,3.3-0.8c1-0.5,1.7-1.3,2.1-2.2
		c0.4-0.9,0.7-2,0.7-3.3c0-1.9-0.5-3.3-1.6-4.3S10.9,0.9,8.8,0.9z"/>
</g>
</svg>
