<?xml version="1.0" encoding="utf-8"?>
<!-- Generator: Adobe Illustrator 28.0.0, SVG Export Plug-In . SVG Version: 6.00 Build 0)  -->
<svg version="1.1" id="Layer_1" xmlns="http://www.w3.org/2000/svg" xmlns:xlink="http://www.w3.org/1999/xlink" x="0px" y="0px"
	 viewBox="0 0 159 110" style="enable-background:new 0 0 159 110;" xml:space="preserve">
<style type="text/css">
	.st0{fill:#FA3E15;}
	.st1{fill:#FFFFFF;}
</style>
<path class="st0" d="M154.1,17.5c-1.8-6.7-7.1-12-13.8-13.8c-9-3.5-96.6-5.2-122,0.1c-6.7,1.8-12,7.1-13.8,13.8
	C0.4,35.5,0.1,74.2,4.6,92.5c1.8,6.7,7.1,12,13.8,13.8c17.9,4.1,103,4.7,122,0c6.7-1.8,12-7.1,13.8-13.8
	C158.6,73,158.9,36.7,154.1,17.5z"/>
<g>
	<polygon class="st1" points="123.4,37.2 123.4,27.6 84.7,27.6 84.7,37.2 98.8,37.2 98.8,73.3 84.7,73.3 84.7,82.4 123.4,82.4 
		123.4,73.3 109.3,73.3 109.3,37.2 	"/>
	<path class="st1" d="M42.1,27.6h-6.6v9.5H43v45.2h10.4V37.2h10.1V55c0,3.3-1.4,4.2-2.3,4.2c-2.4,0-2.3,0-4.2,0
		c0.5,1.7,1,4.3,1.6,7.7c0.2,1.9,0,1,0.5,2.8c1.6,0,2.6,0,5.1-0.2c4.5-0.5,9.8-4,9.8-11.9V37.2l0,0v-9.5l0,0H42.1V27.6z"/>
</g>
</svg>
