<?xml version="1.0" encoding="utf-8"?>
<!-- Generator: Adobe Illustrator 28.0.0, SVG Export Plug-In . SVG Version: 6.00 Build 0)  -->
<svg version="1.1" id="Layer_1" xmlns="http://www.w3.org/2000/svg" xmlns:xlink="http://www.w3.org/1999/xlink" x="0px" y="0px"
	 viewBox="0 0 159.2 174" style="enable-background:new 0 0 159.2 174;" xml:space="preserve">
<path class="svg-red" d="M19.6,2.4c5.9-3.3,13-3.2,18.9,0.4l111.8,68.4c5.5,3.4,8.9,9.4,8.9,15.9s-3.4,12.5-8.9,15.9L38.4,171.3
	c-5.7,3.5-13,3.7-18.9,0.4s-9.6-9.5-9.6-16.2V18.6C10,11.8,13.7,5.6,19.6,2.4z"/>
<g>
	<path class="svg-white" d="M109.3,350.8v-1.9c0-2.1-1.8-3.9-3.9-3.9H94.5v-37.7h10.9c2.1,0,3.9-1.8,3.9-3.9v-2.3c0-2.2-1.7-3.9-3.9-3.9
		H72.7c-2.2,0-3.9,1.7-3.9,3.9v2.3c0,2.1,1.8,3.8,3.9,3.8h10.9V345H72.7c-2.2,0-3.9,1.7-3.9,3.9v1.7c0,2.2,1.7,3.9,3.9,3.9h32.7
		C107.5,354.6,109.2,352.9,109.3,350.8z"/>
	<path class="svg-white" d="M56.7,297.3H27.2h-3c-2.2,0-3.9,1.7-3.9,3.9v2.1c0,2.1,1.7,3.9,3.8,3.9h4v43.4c0,2.1,1.7,3.9,3.9,3.9h3.1
		c2.1,0,3.9-1.7,3.9-3.9v-43.3h10.6v18.6c0,3.5-1.5,4.4-2.4,4.4c-2.5,0-2.4,0-4.4,0c0.5,1.8,1,4.5,1.7,8.1c0.2,2,0,1,0.5,2.9
		c1.7,0,2.7,0,5.3-0.2c4.7-0.5,10.3-4.2,10.3-12.5v-21.3v-6.1C60.6,299.1,58.9,297.4,56.7,297.3z"/>
</g>
<path class="svg-white" d="M71.3,50.9H29.5v12.3l17.6,1.9l0,0.9v73.1l17.6-10V66.1h6.2c4.3,0,7.6,0.9,10,3.3c1.9,2.4,3.3,5.2,3.3,10
	c0,2.8-0.5,5.2-1.9,7.6c-0.9,1.9-2.8,3.8-5.2,4.7c-1.9,0.5-3.8,0.9-6.2,0.9l1.9,15.7c6.2-0.5,11.4-1.4,15.7-3.8
	c4.7-2.4,8.1-6.2,10-10.4c1.9-4.3,3.3-9.5,3.3-15.7c0-9-2.4-15.7-7.6-20.4C88.9,53.3,81.3,50.9,71.3,50.9z"/>
</svg>
